{
  "accessors": [
    {
      "bufferView": 2,
      "componentType": 5126,
      "count": 1280,
      "max": [
        13.226219177246094,
        103.7461166381836,
        13.712717056274414
      ],
      "min": [
        -13.226219177246094,
        0.0,
        -13.712716102600098
      ],
      "type": "VEC3"
    },
    {
      "bufferView": 2,
      "byteOffset": 15360,
      "componentType": 5126,
      "count": 1280,
      "max": [
        0.9964834451675415,
        1.0,
        1.0
      ],
      "min": [
        -0.9964834451675415,
        -1.0,
        -1.0
      ],
      "type": "VEC3"
    },
    {
      "bufferView": 3,
      "componentType": 5126,
      "count": 1280,
      "max": [
        1.0,
        0.430808424949646,
        0.9999997615814209,
        1.0
      ],
      "min": [
        -1.0,
        -0.5153575539588928,
        -1.0,
        1.0
      ],
      "type": "VEC4"
    },
    {
      "bufferView": 1,
      "componentType": 5126,
      "count": 1280,
      "max": [
        0.9952923655509949,
        0.986067533493042
      ],
      "min": [
        0.004244506359100342,
        2.4327309802174568e-05
      ],
      "type": "VEC2"
    },
    {
      "bufferView": 1,
      "byteOffset": 10240,
      "componentType": 5126,
      "count": 1280,
      "max": [
        0.9952923655509949,
        0.986067533493042
      ],
      "min": [
        0.004244506359100342,
        2.4327309802174568e-05
      ],
      "type": "VEC2"
    },
    {
      "bufferView": 1,
      "byteOffset": 20480,
      "componentType": 5126,
      "count": 1280,
      "max": [
        0.9952923655509949,
        0.986067533493042
      ],
      "min": [
        0.004244506359100342,
        2.4327309802174568e-05
      ],
      "type": "VEC2"
    },
    {
      "bufferView": 1,
      "byteOffset": 30720,
      "componentType": 5126,
      "count": 1280,
      "max": [
        0.9952923655509949,
        0.986067533493042
      ],
      "min": [
        0.004244506359100342,
        2.4327309802174568e-05
      ],
      "type": "VEC2"
    },
    {
      "bufferView": 1,
      "byteOffset": 40960,
      "componentType": 5126,
      "count": 1280,
      "max": [
        0.9952923655509949,
        0.986067533493042
      ],
      "min": [
        0.004244506359100342,
        2.4327309802174568e-05
      ],
      "type": "VEC2"
    },
    {
      "bufferView": 0,
      "componentType": 5125,
      "count": 6360,
      "type": "SCALAR"
    },
    {
      "bufferView": 2,
      "byteOffset": 30720,
      "componentType": 5126,
      "count": 1280,
      "max": [
        13.226219177246094,
        103.7461166381836,
        13.712717056274414
      ],
      "min": [
        -13.226219177246094,
        0.0,
        -13.712716102600098
      ],
      "type": "VEC3"
    },
    {
      "bufferView": 2,
      "byteOffset": 46080,
      "componentType": 5126,
      "count": 1280,
      "max": [
        0.9964834451675415,
        1.0,
        1.0
      ],
      "min": [
        -0.9964834451675415,
        -1.0,
        -1.0
      ],
      "type": "VEC3"
    },
    {
      "bufferView": 3,
      "byteOffset": 20480,
      "componentType": 5126,
      "count": 1280,
      "max": [
        1.0,
        0.430808424949646,
        0.9999997615814209,
        1.0
      ],
      "min": [
        -1.0,
        -0.5153575539588928,
        -1.0,
        1.0
      ],
      "type": "VEC4"
    },
    {
      "bufferView": 1,
      "byteOffset": 51200,
      "componentType": 5126,
      "count": 1280,
      "max": [
        0.9952923655509949,
        0.986067533493042
      ],
      "min": [
        0.004244506359100342,
        2.4327309802174568e-05
      ],
      "type": "VEC2"
    },
    {
      "bufferView": 1,
      "byteOffset": 61440,
      "componentType": 5126,
      "count": 1280,
      "max": [
        0.9952923655509949,
        0.986067533493042
      ],
      "min": [
        0.004244506359100342,
        2.4327309802174568e-05
      ],
      "type": "VEC2"
    },
    {
      "bufferView": 1,
      "byteOffset": 71680,
      "componentType": 5126,
      "count": 1280,
      "max": [
        0.9952923655509949,
        0.986067533493042
      ],
      "min": [
        0.004244506359100342,
        2.4327309802174568e-05
      ],
      "type": "VEC2"
    },
    {
      "bufferView": 1,
      "byteOffset": 81920,
      "componentType": 5126,
      "count": 1280,
      "max": [
        0.9952923655509949,
        0.986067533493042
      ],
      "min": [
        0.004244506359100342,
        2.4327309802174568e-05
      ],
      "type": "VEC2"
    },
    {
      "bufferView": 1,
      "byteOffset": 92160,
      "componentType": 5126,
      "count": 1280,
      "max": [
        0.9952923655509949,
        0.986067533493042
      ],
      "min": [
        0.004244506359100342,
        2.4327309802174568e-05
      ],
      "type": "VEC2"
    },
    {
      "bufferView": 0,
      "byteOffset": 25440,
      "componentType": 5125,
      "count": 6360,
      "type": "SCALAR"
    },
    {
      "bufferView": 2,
      "byteOffset": 61440,
      "componentType": 5126,
      "count": 1280,
      "max": [
        13.226219177246094,
        103.7461166381836,
        13.712717056274414
      ],
      "min": [
        -13.226219177246094,
        0.0,
        -13.712716102600098
      ],
      "type": "VEC3"
    },
    {
      "bufferView": 2,
      "byteOffset": 76800,
      "componentType": 5126,
      "count": 1280,
      "max": [
        0.9964834451675415,
        1.0,
        1.0
      ],
      "min": [
        -0.9964834451675415,
        -1.0,
        -1.0
      ],
      "type": "VEC3"
    },
    {
      "bufferView": 3,
      "byteOffset": 40960,
      "componentType": 5126,
      "count": 1280,
      "max": [
        1.0,
        0.430808424949646,
        0.9999997615814209,
        1.0
      ],
      "min": [
        -1.0,
        -0.5153575539588928,
        -1.0,
        1.0
      ],
      "type": "VEC4"
    },
    {
      "bufferView": 1,
      "byteOffset": 102400,
      "componentType": 5126,
      "count": 1280,
      "max": [
        0.9952923655509949,
        0.986067533493042
      ],
      "min": [
        0.004244506359100342,
        2.4327309802174568e-05
      ],
      "type": "VEC2"
    },
    {
      "bufferView": 1,
      "byteOffset": 112640,
      "componentType": 5126,
      "count": 1280,
      "max": [
        0.9952923655509949,
        0.986067533493042
      ],
      "min": [
        0.004244506359100342,
        2.4327309802174568e-05
      ],
      "type": "VEC2"
    },
    {
      "bufferView": 1,
      "byteOffset": 122880,
      "componentType": 5126,
      "count": 1280,
      "max": [
        0.9952923655509949,
        0.986067533493042
      ],
      "min": [
        0.004244506359100342,
        2.4327309802174568e-05
      ],
      "type": "VEC2"
    },
    {
      "bufferView": 1,
      "byteOffset": 133120,
      "componentType": 5126,
      "count": 1280,
      "max": [
        0.9952923655509949,
        0.986067533493042
      ],
      "min": [
        0.004244506359100342,
        2.4327309802174568e-05
      ],
      "type": "VEC2"
    },
    {
      "bufferView": 1,
      "byteOffset": 143360,
      "componentType": 5126,
      "count": 1280,
      "max": [
        0.9952923655509949,
        0.986067533493042
      ],
      "min": [
        0.004244506359100342,
        2.4327309802174568e-05
      ],
      "type": "VEC2"
    },
    {
      "bufferView": 0,
      "byteOffset": 50880,
      "componentType": 5125,
      "count": 6360,
      "type": "SCALAR"
    }
  ],
  "asset": {
    "extras": {
      "author": "kraffing Studio (https://sketchfab.com/kraffing)",
      "license": "CC-BY-4.0 (http://creativecommons.org/licenses/by/4.0/)",
      "source": "https://sketchfab.com/3d-models/cylinder-sci-fi-aabce1fe8a854600874f131b0f224595",
      "title": "Cylinder Sci Fi"
    },
    "generator": "Sketchfab-15.50.0",
    "version": "2.0"
  },
  "bufferViews": [
    {
      "buffer": 0,
      "byteLength": 76320,
      "name": "floatBufferViews",
      "target": 34963
    },
    {
      "buffer": 0,
      "byteLength": 153600,
      "byteOffset": 76320,
      "byteStride": 8,
      "name": "floatBufferViews",
      "target": 34962
    },
    {
      "buffer": 0,
      "byteLength": 92160,
      "byteOffset": 229920,
      "byteStride": 12,
      "name": "floatBufferViews",
      "target": 34962
    },
    {
      "buffer": 0,
      "byteLength": 61440,
      "byteOffset": 322080,
      "byteStride": 16,
      "name": "floatBufferViews",
      "target": 34962
    }
  ],
  "buffers": [
    {
      "byteLength": 383520,
      "uri": "scene.bin"
    }
  ],
  "images": [
    {
      "uri": "textures/TX_Cylinder_Sci_Fi_1_1_baseColor.png"
    },
    {
      "uri": "textures/TX_Cylinder_Sci_Fi_1_1_metallicRoughness.png"
    },
    {
      "uri": "textures/TX_Cylinder_Sci_Fi_1_1_emissive.png"
    },
    {
      "uri": "textures/TX_Cylinder_Sci_Fi_1_1_normal.png"
    },
    {
      "uri": "textures/TX_Cylinder_Sci_Fi_1_2_baseColor.png"
    },
    {
      "uri": "textures/TX_Cylinder_Sci_Fi_1_2_metallicRoughness.png"
    },
    {
      "uri": "textures/TX_Cylinder_Sci_Fi_1_2_emissive.png"
    },
    {
      "uri": "textures/TX_Cylinder_Sci_Fi_1_2_normal.png"
    },
    {
      "uri": "textures/TX_Cylinder_Sci_Fi_1_3_baseColor.png"
    },
    {
      "uri": "textures/TX_Cylinder_Sci_Fi_1_3_metallicRoughness.png"
    },
    {
      "uri": "textures/TX_Cylinder_Sci_Fi_1_3_emissive.png"
    },
    {
      "uri": "textures/TX_Cylinder_Sci_Fi_1_3_normal.png"
    }
  ],
  "materials": [
    {
      "doubleSided": true,
      "emissiveFactor": [
        1.0,
        1.0,
        1.0
      ],
      "emissiveTexture": {
        "index": 2
      },
      "name": "TX_Cylinder_Sci_Fi_1_1",
      "normalTexture": {
        "index": 3
      },
      "occlusionTexture": {
        "index": 1
      },
      "pbrMetallicRoughness": {
        "baseColorTexture": {
          "index": 0
        },
        "metallicRoughnessTexture": {
          "index": 1
        }
      }
    },
    {
      "doubleSided": true,
      "emissiveFactor": [
        1.0,
        1.0,
        1.0
      ],
      "emissiveTexture": {
        "index": 6
      },
      "name": "TX_Cylinder_Sci_Fi_1_2",
      "normalTexture": {
        "index": 7
      },
      "occlusionTexture": {
        "index": 5
      },
      "pbrMetallicRoughness": {
        "baseColorTexture": {
          "index": 4
        },
        "metallicRoughnessTexture": {
          "index": 5
        }
      }
    },
    {
      "doubleSided": true,
      "emissiveFactor": [
        1.0,
        1.0,
        1.0
      ],
      "emissiveTexture": {
        "index": 10
      },
      "name": "TX_Cylinder_Sci_Fi_1_3",
      "normalTexture": {
        "index": 11
      },
      "occlusionTexture": {
        "index": 9
      },
      "pbrMetallicRoughness": {
        "baseColorTexture": {
          "index": 8
        },
        "metallicRoughnessTexture": {
          "index": 9
        }
      }
    }
  ],
  "meshes": [
    {
      "name": "Cylinder_Sci_Fi_1_1_TX_Cylinder_Sci_Fi_1_1_0",
      "primitives": [
        {
          "attributes": {
            "NORMAL": 1,
            "POSITION": 0,
            "TANGENT": 2,
            "TEXCOORD_0": 3,
            "TEXCOORD_1": 4,
            "TEXCOORD_2": 5,
            "TEXCOORD_3": 6,
            "TEXCOORD_4": 7
          },
          "indices": 8,
          "material": 0,
          "mode": 4
        }
      ]
    },
    {
      "name": "Cylinder_Sci_Fi_1_2_TX_Cylinder_Sci_Fi_1_2_0",
      "primitives": [
        {
          "attributes": {
            "NORMAL": 10,
            "POSITION": 9,
            "TANGENT": 11,
            "TEXCOORD_0": 12,
            "TEXCOORD_1": 13,
            "TEXCOORD_2": 14,
            "TEXCOORD_3": 15,
            "TEXCOORD_4": 16
          },
          "indices": 17,
          "material": 1,
          "mode": 4
        }
      ]
    },
    {
      "name": "Cylinder_Sci_Fi_1_3_TX_Cylinder_Sci_Fi_1_3_0",
      "primitives": [
        {
          "attributes": {
            "NORMAL": 19,
            "POSITION": 18,
            "TANGENT": 20,
            "TEXCOORD_0": 21,
            "TEXCOORD_1": 22,
            "TEXCOORD_2": 23,
            "TEXCOORD_3": 24,
            "TEXCOORD_4": 25
          },
          "indices": 26,
          "material": 2,
          "mode": 4
        }
      ]
    }
  ],
  "nodes": [
    {
      "children": [
        1
      ],
      "matrix": [
        1.0,
        0.0,
        0.0,
        0.0,
        0.0,
        2.220446049250313e-16,
        -1.0,
        0.0,
        0.0,
        1.0,
        2.220446049250313e-16,
        0.0,
        0.0,
        0.0,
        0.0,
        1.0
      ],
      "name": "Sketchfab_model"
    },
    {
      "children": [
        2
      ],
      "matrix": [
        0.009999999776482582,
        0.0,
        0.0,
        0.0,
        0.0,
        0.0,
        0.009999999776482582,
        0.0,
        0.0,
        -0.009999999776482582,
        0.0,
        0.0,
        0.0,
        0.0,
        0.0,
        1.0
      ],
      "name": "d0cd5e63b1644bdda4c9619d7205706f.fbx"
    },
    {
      "children": [
        3,
        5,
        7
      ],
      "name": "RootNode"
    },
    {
      "children": [
        4
      ],
      "name": "Cylinder_Sci_Fi_1_1"
    },
    {
      "mesh": 0,
      "name": "Cylinder_Sci_Fi_1_1_TX_Cylinder_Sci_Fi_1_1_0"
    },
    {
      "children": [
        6
      ],
      "matrix": [
        1.0,
        0.0,
        0.0,
        0.0,
        0.0,
        1.0,
        0.0,
        0.0,
        0.0,
        0.0,
        1.0,
        0.0,
        50.0,
        0.0,
        0.0,
        1.0
      ],
      "name": "Cylinder_Sci_Fi_1_2"
    },
    {
      "mesh": 1,
      "name": "Cylinder_Sci_Fi_1_2_TX_Cylinder_Sci_Fi_1_2_0"
    },
    {
      "children": [
        8
      ],
      "matrix": [
        1.0,
        0.0,
        0.0,
        0.0,
        0.0,
        1.0,
        0.0,
        0.0,
        0.0,
        0.0,
        1.0,
        0.0,
        -50.0,
        0.0,
        0.0,
        1.0
      ],
      "name": "Cylinder_Sci_Fi_1_3"
    },
    {
      "mesh": 2,
      "name": "Cylinder_Sci_Fi_1_3_TX_Cylinder_Sci_Fi_1_3_0"
    }
  ],
  "samplers": [
    {
      "magFilter": 9729,
      "minFilter": 9987,
      "wrapS": 10497,
      "wrapT": 10497
    }
  ],
  "scene": 0,
  "scenes": [
    {
      "name": "Sketchfab_Scene",
      "nodes": [
        0
      ]
    }
  ],
  "textures": [
    {
      "sampler": 0,
      "source": 0
    },
    {
      "sampler": 0,
      "source": 1
    },
    {
      "sampler": 0,
      "source": 2
    },
    {
      "sampler": 0,
      "source": 3
    },
    {
      "sampler": 0,
      "source": 4
    },
    {
      "sampler": 0,
      "source": 5
    },
    {
      "sampler": 0,
      "source": 6
    },
    {
      "sampler": 0,
      "source": 7
    },
    {
      "sampler": 0,
      "source": 8
    },
    {
      "sampler": 0,
      "source": 9
    },
    {
      "sampler": 0,
      "source": 10
    },
    {
      "sampler": 0,
      "source": 11
    }
  ]
}
