{
  "asset": {
    "version": "2.0",
    "generator": "Avalonia3D.Sandbox"
  },
  "buffers": [
    {
      "uri": "data:application/octet-stream;base64,",
      "byteLength": 108
    }
  ],
  "bufferViews": [
    {
      "buffer": 0,
      "byteOffset": 0,
      "byteLength": 48,
      "target": 34962
    },
    {
      "buffer": 0,
      "byteOffset": 48,
      "byteLength": 48,
      "target": 34962
    },
    {
      "buffer": 0,
      "byteOffset": 96,
      "byteLength": 12,
      "target": 34963
    }
  ],
  "accessors": [
    {
      "bufferView": 0,
      "byteOffset": 0,
      "componentType": 5126,
      "count": 4,
      "type": "VEC3",
      "max": [
        1.0,
        0.0,
        1.0
      ],
      "min": [
        -1.0,
        0.0,
        -1.0
      ]
    },
    {
      "bufferView": 1,
      "byteOffset": 0,
      "componentType": 5126,
      "count": 4,
      "type": "VEC3"
    },
    {
      "bufferView": 2,
      "byteOffset": 0,
      "componentType": 5123,
      "count": 6,
      "type": "SCALAR",
      "max": [
        3
      ],
      "min": [
        0
      ]
    }
  ],
  "materials": [
    {
      "name": "MetalRed",
      "pbrMetallicRoughness": {
        "baseColorFactor": [
          0.9,
          0.2,
          0.2,
          1.0
        ],
        "metallicFactor": 1.0,
        "roughnessFactor": 0.2
      }
    },
    {
      "name": "PlasticGreen",
      "pbrMetallicRoughness": {
        "baseColorFactor": [
          0.2,
          0.8,
          0.3,
          1.0
        ],
        "metallicFactor": 0.0,
        "roughnessFactor": 0.9
      }
    }
  ],
  "meshes": [
    {
      "name": "MetalQuad",
      "primitives": [
        {
          "attributes": {
            "POSITION": 0,
            "NORMAL": 1
          },
          "indices": 2,
          "material": 0
        }
      ]
    },
    {
      "name": "PlasticQuad",
      "primitives": [
        {
          "attributes": {
            "POSITION": 0,
            "NORMAL": 1
          },
          "indices": 2,
          "material": 1
        }
      ]
    }
  ],
  "nodes": [
    {
      "name": "Metal",
      "mesh": 0,
      "translation": [
        -1.5,
        0.0,
        0.0
      ]
    },
    {
      "name": "Plastic",
      "mesh": 1,
      "translation": [
        1.5,
        0.0,
        0.0
      ]
    }
  ],
  "scenes": [
    {
      "nodes": [
        0,
        1
      ]
    }
  ],
  "scene": 0
}